# xmcd
#
# Track frame offsets:
#	150
#	14331
#	23980
#	34796
#	50660
#	67825
#	83281
#	94781
#	106524
#	118854
#	133151
#	145110
#	165451
#
# Disc length: 2573 seconds
#
# Revision: 3
# Processed by: cddbd v1.5.2PL0 Copyright (c) Steve Scherf et al.
# Submitted via: EasyCDDAExtractor 8.2.3.1
#
DISCID=9d0a0b0d
DTITLE=Hank Williams III - Straight To Hell cd1
DYEAR=2006
DGENRE=Country
TTITLE0=Satan Is Real/Straight To Hell (Medley)
TTITLE1=Thrown Out Of The Bar
TTITLE2=Things You Do To Me
TTITLE3=Country Heroes
TTITLE4=D Ray White
TTITLE5=Low Down
TTITLE6=Pills I Took
TTITLE7=Smoke and Wine
TTITLE8=My Drinkin Problem
TTITLE9=Crazed Country Rebel
TTITLE10=Dick In Dixie
TTITLE11=Not Everybody Likes Us
TTITLE12=Angel Of Sin
EXTD=YEAR: 2006 ID3G:   2
EXTT0=
EXTT1=
EXTT2=
EXTT3=
EXTT4=
EXTT5=
EXTT6=
EXTT7=
EXTT8=
EXTT9=
EXTT10=
EXTT11=
EXTT12=
PLAYORDER=
